<svg xmlns="http://www.w3.org/2000/svg" xmlns:xlink="http://www.w3.org/1999/xlink" viewBox="0 0 1920 843"><defs><style>.cls-1{fill:#6156f9;}.cls-2{fill:url(#linear-gradient);}</style><linearGradient id="linear-gradient" x1="2148.48" y1="421.5" x2="960" y2="421.5" gradientTransform="matrix(-1, 0, 0, 1, 1920, 0)" gradientUnits="userSpaceOnUse"><stop offset="0" stop-color="#6156f9"/><stop offset="1" stop-color="#1a129f"/></linearGradient></defs><g id="Layer_2" data-name="Layer 2"><g id="Layer_1-2" data-name="Layer 1"><path class="cls-1" d="M0,325V843H1920V439.36c-40.71-35.72-79.58-71.94-117.88-106.54-171.66-155-331.91-277.86-593.49-179.66A823.37,823.37,0,0,0,1108.8,199C623.65,459.5,275.31,267.12,4,324.15,2.65,324.43,1.33,324.71,0,325Z"/><path class="cls-2" d="M0,375.82V843H1920V337.21c-35.66,13.23-74.92,30.82-118.13,53.31l-1.45.76c-268.1,139.91-443-7.78-593.27-160.1C1034.25,56,893.88-125.39,681.54,117.8,408.56,430.47,165.85,293.85,0,375.82Z"/></g></g></svg>