<svg xmlns="http://www.w3.org/2000/svg" xmlns:xlink="http://www.w3.org/1999/xlink" viewBox="0 0 1920 886"><defs><style>.cls-1{fill:#6156f9;}.cls-2{fill:url(#linear-gradient);}</style><linearGradient id="linear-gradient" x1="2148.48" y1="450.5" x2="960" y2="450.5" gradientUnits="userSpaceOnUse"><stop offset="0" stop-color="#6156f9"/><stop offset="1" stop-color="#1a129f"/></linearGradient></defs><g id="Layer_2" data-name="Layer 2"><g id="Layer_1-2" data-name="Layer 1"><path class="cls-1" d="M1920,392.72V886H0V253l4-1c118.85-30.53,252.47-2.58,405.91,11.72,176.63,16.46,379.52,14.82,616.33-115q40.61-22.26,82.57-49.72c34.9-22.9,68.11-41.42,99.83-56,261.58-120,421.83,30.08,593.49,219.55,31.89,35.21,64.18,71.79,97.59,108.24Q1909.78,381.76,1920,392.72Z"/><path class="cls-2" d="M1920,363.41V886H0V369.16c120.22-5.78,259.31-7.89,409.9-105.51,48.37-31.36,97.93-72.58,148.44-126.94,187.06-201.32,323.32-121,467.89,11.95,35.86,33,72.23,69.22,110,105.2,165.25,157.38,357.51,310,652.28,165.42l1.6-.79c39.45-19.3,75.91-35.1,109.59-47.73Q1910,366.88,1920,363.41Z"/></g></g></svg>